PathFileType	4	(X/Y/Z)	Kaydara	
DataRate	CameraRate	NumFrames	NumMarkers	Units	OrigDataRate	OrigDataStartFrame	OrigNumFrames	
60.00	60.00	4	74	mm	60.00	1277	200	
Frame#	Time	Z_lasi			Z_rasi			Z_rpsi			Z_lpsi			Z_fneck			Z_bneck			Z_fhead			Z_rhead			Z_lhead			Z_rshld			Z_relbtop			Z_relbext			Z_relblow			Z_rwrext			Z_rwrtop			Z_rwrlow			Z_lshld			Z_lelbext			Z_lelblow			Z_lelbtop			Z_lwrext			Z_lwrtop			Z_lwrlow			Z_rtopleg			Z_ltopleg			Z_rkneefr			Z_rkneebk			Z_rkneeis			Z_lkneefr			Z_lknssbk			Z_lkneeis			Z_rankfr			Z_rankis			Z_rankbk			Z_lankfr			Z_lankbk			Z_lankis			A_lasi			A_rasi			A_rpsi			A_lpsi			A_fneck			A_bneck			A_fhead			A_rhead			A_lhead			A_rshld			A_relbtop			A_relbext			A_relblow			A_rwrext			A_rwrtop			A_rwrlow			A_lshld			A_lelbext			A_lelblow			A_lelbtop			A_lwrext			A_lwrtop			A_lwrlow			A_rtopleg			A_ltopleg			A_rkneefr			A_rkneebk			A_rkneeis			A_lkneefr			A_lknssbk			A_lkneeis			A_rankfr			A_rankis			A_rankbk			A_lankfr			A_lankbk			A_lankis			
		X1	Y1	Z1	X2	Y2	Z2	X3	Y3	Z3	X4	Y4	Z4	X5	Y5	Z5	X6	Y6	Z6	X7	Y7	Z7	X8	Y8	Z8	X9	Y9	Z9	X10	Y10	Z10	X11	Y11	Z11	X12	Y12	Z12	X13	Y13	Z13	X14	Y14	Z14	X15	Y15	Z15	X16	Y16	Z16	X17	Y17	Z17	X18	Y18	Z18	X19	Y19	Z19	X20	Y20	Z20	X21	Y21	Z21	X22	Y22	Z22	X23	Y23	Z23	X24	Y24	Z24	X25	Y25	Z25	X26	Y26	Z26	X27	Y27	Z27	X28	Y28	Z28	X29	Y29	Z29	X30	Y30	Z30	X31	Y31	Z31	X32	Y32	Z32	X33	Y33	Z33	X34	Y34	Z34	X35	Y35	Z35	X36	Y36	Z36	X37	Y37	Z37	X38	Y38	Z38	X39	Y39	Z39	X40	Y40	Z40	X41	Y41	Z41	X42	Y42	Z42	X43	Y43	Z43	X44	Y44	Z44	X45	Y45	Z45	X46	Y46	Z46	X47	Y47	Z47	X48	Y48	Z48	X49	Y49	Z49	X50	Y50	Z50	X51	Y51	Z51	X52	Y52	Z52	X53	Y53	Z53	X54	Y54	Z54	X55	Y55	Z55	X56	Y56	Z56	X57	Y57	Z57	X58	Y58	Z58	X59	Y59	Z59	X60	Y60	Z60	X61	Y61	Z61	X62	Y62	Z62	X63	Y63	Z63	X64	Y64	Z64	X65	Y65	Z65	X66	Y66	Z66	X67	Y67	Z67	X68	Y68	Z68	X69	Y69	Z69	X70	Y70	Z70	X71	Y71	Z71	X72	Y72	Z72	X73	Y73	Z73	X74	Y74	Z74	

76	21.267	-222.25603	1082.56973	684.35043	-283.69242	1090.17555	487.60414	-116.42848	1111.36246	403.04710	-36.01882	1098.94165	632.02148	-215.25990	1438.56079	562.81380	-117.98029	1519.20212	559.39106	-349.60194	1600.71060	545.21313	-203.20259	1650.54123	479.26601	-207.25269	1646.55975	627.11174	-172.78522	1434.92981	351.48277	-141.98477	1114.38660	270.64737	-113.29214	1097.78763	322.81883	-206.39561	1123.95958	312.12311	-235.79090	885.55588	281.24401	-267.63107	898.59917	312.00012	-242.25878	893.88924	346.56578	-105.85279	1444.66446	744.12849	-78.43070	1124.80225	752.39883	-142.12527	1147.09427	811.83395	-73.67507	1143.29880	821.41273	-218.27011	894.74541	791.64101	-210.48550	886.54152	837.63748	-164.70751	880.38567	832.84767	-167.53559	923.61893	356.56982	-132.07852	895.20279	720.36385	-241.94668	421.32755	407.23629	-173.80787	451.12812	353.00186	-179.42791	429.31786	477.28199	-189.37176	447.22839	687.22237	-84.66108	471.75262	667.75246	-184.87858	442.67593	593.92921	-203.75957	180.27969	377.35336	-179.75933	174.62688	439.31740	-127.16848	172.02467	369.35421	-124.44031	163.69234	678.19870	-70.45203	166.41048	617.35218	-150.51125	173.66154	611.17748	-969.61769	1029.13147	480.60299	-962.22916	1039.66835	639.63398	-1122.04025	1038.04001	655.33707	-1094.10355	1038.54881	473.40511	-1045.61424	1378.49548	556.72676	-1181.59134	1407.34161	537.16106	-993.14888	1580.02411	616.19392	-1154.29298	1532.73163	659.80705	-1120.32936	1572.69302	504.05582	-1123.91747	1350.48187	727.84485	-1030.47935	1078.95767	772.94044	-1087.95204	1051.95267	788.01811	-1051.47179	1062.70485	721.94176	-894.88251	889.81834	701.09947	-883.84239	923.00087	671.40396	-918.48068	917.31819	650.29022	-1066.22032	1347.85553	377.50633	-1030.90981	1036.19141	342.77847	-995.89432	1061.92909	405.28145	-985.03021	1052.51587	352.76623	-933.81088	878.13553	497.24342	-906.11542	865.79720	466.31775	-881.20651	894.25758	491.96640	-1067.00462	875.30922	740.89249	-1028.17551	889.91173	403.75950	-1027.23450	450.99895	646.66168	-1134.99710	486.41617	691.45584	-1114.08798	486.74625	573.38219	-1012.18033	462.90348	513.35686	-1096.53053	481.02570	417.25418	-1119.83521	479.20746	541.58581	-1099.47342	165.83019	665.96657	-1132.17331	163.47559	599.91875	-1180.97885	154.09386	668.75198	-1067.45827	166.95454	458.28442	-1128.34183	168.88285	422.55375	-1127.19627	173.35276	512.15187 
77	21.283	-222.29645	1082.56805	684.27361	-283.72152	1090.17365	487.55299	-116.57187	1111.55182	403.18371	-36.27849	1098.97942	632.01580	-215.32993	1439.13254	563.05996	-117.92646	1519.06113	559.43325	-349.00055	1601.72165	545.18684	-202.02412	1650.66086	479.53785	-206.43642	1646.42563	627.44110	-173.01025	1435.82565	351.29734	-142.11926	1114.97955	271.10317	-113.34758	1098.33809	323.22365	-206.54196	1124.54590	312.34766	-235.76487	886.07231	281.41533	-267.58459	899.10759	312.26221	-242.15687	894.28246	346.75591	-106.09657	1445.25116	744.19281	-78.24252	1125.22621	751.89949	-141.72781	1147.48604	811.63223	-73.31719	1143.68614	820.97488	-217.79608	895.19302	791.47156	-210.01823	887.05765	837.64297	-164.26386	880.89546	832.89589	-167.51623	923.66608	356.54987	-132.04667	895.20897	720.31517	-241.81686	421.29585	407.19028	-173.64935	451.11465	352.92912	-179.45478	429.36359	477.30267	-189.15897	447.26425	687.14485	-84.55113	471.74980	667.74696	-184.75086	442.69131	593.88924	-203.69440	180.26470	377.30015	-179.69383	174.60697	439.26350	-127.10957	171.98219	369.33208	-124.42362	163.70281	678.22327	-70.39705	166.35750	617.33177	-150.49459	173.66365	611.17981	-969.45381	1029.11949	480.85209	-962.35008	1039.68048	639.93111	-1122.11899	1037.91191	655.23804	-1093.84933	1038.47534	473.40858	-1045.83405	1378.27560	557.05257	-1181.65100	1407.46536	537.03064	-993.07144	1579.45587	617.04422	-1154.48433	1532.58316	659.82849	-1119.86115	1572.71408	504.37035	-1125.04311	1350.23590	727.76520	-1031.31645	1078.92876	773.23654	-1088.56346	1051.70540	787.87140	-1051.81702	1062.58865	722.04773	-894.21646	890.47729	702.64984	-884.26170	922.93808	672.17415	-918.82660	916.30417	651.44669	-1066.01494	1347.76016	377.61150	-1030.70641	1036.17752	343.25226	-995.57304	1061.70685	405.59978	-984.84856	1052.36320	353.01880	-933.12447	876.75537	496.73374	-905.67230	864.98611	465.26440	-880.93216	893.26408	491.30386	-1067.02751	875.30006	740.98160	-1027.75871	889.87160	403.89904	-1027.14378	450.99716	646.78726	-1134.99542	486.42860	691.50513	-1113.94615	486.74164	573.40443	-1012.08221	462.84756	513.51357	-1096.30112	481.01742	417.33532	-1119.65988	479.21528	541.61194	-1099.47258	165.82827	665.99541	-1132.15790	163.46998	599.94392	-1180.99037	154.11330	668.71590	-1067.41425	166.94654	458.32451	-1128.34274	168.82988	422.62325	-1127.19376	173.37534	512.15488 
78	21.300	-222.44005	1082.55737	684.24408	-283.83385	1090.19455	487.46471	-115.76180	1111.81725	402.13497	-36.39549	1098.93265	632.09240	-215.80284	1440.33676	563.29506	-117.75229	1518.76923	559.69456	-347.79839	1603.18527	544.82388	-200.06201	1650.63263	479.75555	-205.10542	1646.20636	627.63840	-173.82973	1437.79114	350.97305	-142.11607	1116.47041	271.97153	-113.47938	1099.98192	324.29657	-206.54528	1125.99060	312.78431	-235.07240	887.52251	281.59998	-266.98221	900.29541	312.51701	-241.48279	895.55511	346.91803	-106.88763	1446.94229	744.69307	-77.84941	1126.60477	750.70084	-140.80005	1148.60382	811.25282	-72.33933	1144.88823	819.96605	-217.30276	896.83838	791.80946	-208.93646	888.47687	837.66487	-163.02378	882.32063	832.56126	-167.53876	923.72299	356.50154	-132.15007	895.20851	720.29427	-241.67763	421.24500	407.14119	-173.51065	451.07082	352.85355	-179.44265	429.34624	477.28367	-189.08533	447.23274	687.07039	-84.36563	471.71730	667.59575	-184.62778	442.66495	593.84254	-203.65295	180.22230	377.27264	-179.65282	174.58323	439.22283	-127.04267	171.94256	369.30950	-124.33885	163.66879	678.18542	-70.36148	166.31165	617.29057	-150.27316	173.55354	611.12740	-969.27765	1029.11087	481.15875	-962.44164	1039.67995	640.15892	-1122.21855	1037.76749	655.14091	-1093.59543	1038.38684	473.31989	-1046.06667	1378.09082	557.48207	-1181.79237	1407.50916	537.03129	-992.99179	1579.11560	617.34871	-1154.58817	1532.63214	659.86198	-1119.47281	1572.63535	504.55158	-1126.03348	1349.94034	727.77527	-1031.79794	1078.90488	773.51891	-1088.98643	1051.60027	787.90207	-1052.17537	1062.42920	722.42950	-894.03313	890.76027	704.06075	-884.67186	922.56187	672.51587	-919.66072	914.90242	652.57347	-1065.67856	1347.78595	377.87453	-1030.61157	1036.22780	343.78326	-995.20668	1061.63742	405.90828	-984.70184	1052.24236	353.43086	-932.71400	875.50850	495.92220	-905.41351	864.09500	464.04144	-880.44800	892.22855	490.05135	-1067.08527	875.28481	741.02394	-1027.50664	889.88121	404.19006	-1027.07474	450.99304	646.89400	-1134.98688	486.44356	691.48422	-1113.84300	486.75304	573.43460	-1011.82533	462.83867	513.51448	-1096.02440	481.00914	417.34348	-1119.52385	479.22363	541.64951	-1099.47647	165.80875	666.02837	-1132.13852	163.46655	599.95922	-1181.02074	154.10930	668.68629	-1067.34695	166.94843	458.32436	-1128.17444	168.92155	422.53494	-1127.13524	173.37458	512.15431 
79	21.317	-222.63752	1082.58888	684.11789	-283.92313	1090.26672	487.43649	-114.63114	1111.66809	400.97801	-36.53506	1098.80493	632.18040	-217.19702	1442.19925	563.51940	-117.25106	1518.79028	560.11646	-346.17382	1605.09964	543.67390	-197.31449	1650.67261	480.00996	-203.56850	1646.20789	627.78431	-175.36236	1441.11420	351.14922	-141.90765	1119.49585	273.28461	-113.66127	1103.06641	325.87452	-206.84589	1128.78418	313.50185	-233.51482	890.11253	281.89779	-265.69195	902.64725	312.44919	-240.36329	898.06381	347.14630	-108.83677	1450.23590	745.34798	-77.56952	1129.66476	748.85941	-139.12181	1150.97916	810.71083	-70.58450	1147.53967	818.13011	-216.22265	899.86740	792.28683	-206.71438	891.29097	837.71034	-161.13689	884.85069	831.95824	-167.59918	923.72772	356.49662	-132.37477	895.20279	720.28152	-241.65930	421.18031	407.06444	-173.50224	451.00559	352.79781	-179.30864	429.26437	477.12666	-189.06796	447.19189	687.05566	-84.37925	471.68652	667.59483	-184.56680	442.60368	593.77308	-203.62766	180.19550	377.21565	-179.61277	174.53863	439.19476	-127.03316	171.90479	369.32014	-124.39611	163.63787	678.17352	-70.36807	166.24319	617.26692	-150.44546	173.59280	611.14220	-968.93333	1029.14429	481.40198	-962.51823	1039.69627	640.43694	-1122.30042	1037.61185	655.01183	-1093.31566	1038.36441	473.20717	-1046.29066	1377.97531	558.01319	-1181.94839	1407.54272	537.09190	-992.88467	1579.00833	617.48302	-1154.62143	1532.88910	659.92920	-1119.24232	1572.48734	504.55074	-1127.00424	1349.64691	727.92252	-1032.09267	1078.84010	773.87833	-1089.33067	1051.49155	788.16666	-1052.39746	1062.27699	722.87857	-894.10393	890.43533	705.40298	-885.43503	921.61453	673.09799	-920.73807	913.15704	653.91159	-1065.27748	1347.88864	378.20976	-1030.64224	1036.31813	344.55318	-994.61746	1061.50650	406.47331	-984.59076	1052.19788	353.90652	-932.30309	874.02245	495.29053	-905.38536	862.89474	462.69386	-879.82994	890.85030	488.40725	-1067.18491	875.29076	741.02234	-1027.09145	889.81400	404.21471	-1027.06680	451.00666	647.03674	-1135.00549	486.44878	691.46286	-1113.72726	486.73489	573.43300	-1011.77368	462.78770	513.67920	-1095.74547	481.01303	417.28859	-1119.38820	479.27616	541.61736	-1099.52011	165.82771	666.06430	-1132.09877	163.46375	599.97131	-1181.02463	154.11632	668.68645	-1067.25853	166.93218	458.34698	-1128.10532	168.92340	422.53334	-1127.11746	173.40567	512.17609 
